<?xml version="1.0" encoding="UTF-8"?>
<svg id="Layer_2" data-name="Layer 2" xmlns="http://www.w3.org/2000/svg" xmlns:xlink="http://www.w3.org/1999/xlink" viewBox="0 0 351.72 117">
  <defs>
    <style>
      .cls-1 {
        fill: none;
      }

      .cls-2 {
        clip-path: url(#clippath-1);
      }

      .cls-3 {
        clip-path: url(#clippath-3);
      }

      .cls-4 {
        clip-path: url(#clippath-2);
      }

      .cls-5 {
        fill: #fff;
      }

      .cls-6 {
        clip-path: url(#clippath);
      }
    </style>
    <clipPath id="clippath">
      <rect class="cls-1" x="7.05" width="99.95" height="82.6"/>
    </clipPath>
    <clipPath id="clippath-1">
      <rect class="cls-1" y="39.94" width="99.05" height="57.33"/>
    </clipPath>
    <clipPath id="clippath-2">
      <rect class="cls-1" x="13.72" y="85.27" width="70.67" height="31.73"/>
    </clipPath>
    <clipPath id="clippath-3">
      <rect class="cls-1" x="326.72" y="74.96" width="25" height="25"/>
    </clipPath>
  </defs>
  <g id="Layer_1-2" data-name="Layer 1">
    <g>
      <g class="cls-6">
        <path class="cls-5" d="M7.42.31c.07-.3.44-.42.67-.21,7.47,6.92,16.24,12.83,25.13,17.76,4.98,2.76,10.13,5.21,15.41,7.33,13.12,5.27,27.41,8.31,39.7,15.5,5.49,3.21,10.49,7.53,13.57,13.08,4.48,8.08,5.06,18.48,4.82,27.53-.04,1.39-2.57-1.08-2.89-1.47-1.61-1.95-2.71-4.41-4.31-6.44-3.35-4.23-7.53-7.8-12.26-10.4-7.23-3.99-15.46-5.68-23.44-7.83-18.26-4.93-37.53-12.9-48.64-28.94-4.6-6.65-7.55-14.42-7.97-22.51-.06-1.14-.05-2.29.21-3.4h-.01Z"/>
      </g>
      <g class="cls-2">
        <path class="cls-5" d="M2.56,41.45c1.61.84,3.24,1.62,4.89,2.35,3.57,1.59,7.23,2.99,10.92,4.28,7.74,2.7,15.61,5.02,23.56,7.06,1.33.34,2.65.67,3.97,1.01,1.52.38,3.05.75,4.57,1.1.74.18,1.49.36,2.23.53.68.16,1.54.52,2.23.52,12.98,2.99,28.42,4.36,38.25,14.41,2.67,2.73,4.65,6.26,4.86,10.06.22,3.98-1.55,7.8-4.08,10.8-1.34,1.57-4.76,6.03-5.43,2.02-1.05-6.27-6.57-10.6-12.33-12.63-5.02-1.76-10.42-2.02-15.74-1.98-5.32.04-10.66.33-15.93-.38-9.17-1.22-17.79-5.49-24.86-11.42-7.91-6.63-15.4-15.95-18.73-25.79-.21-.64-.41-1.29-.58-1.94-.06-.23-.24-.89,0-1.07.3-.22,1.51.72,1.82.88.13.07.26.14.38.19h0Z"/>
      </g>
      <g class="cls-4">
        <path class="cls-5" d="M14.88,104.79c-.71-.81-.35-2.29.72-2.41,27.23-3.21,31.31-11.35,40.89-14.42,3.2-1.02,6.51-1.73,9.88-1.86,6.26-.26,13.56,1.67,17.39,6.92.11.16.3.35.3.56,0,.26-.3.41-.51.52-3.29,1.72-7.06,2.13-10.47,3.67-3.4,1.53-6.38,3.56-8.89,6.2-1.97,2.08-3.58,4.5-5.66,6.47-3.2,3.06-7.39,4.96-11.73,5.85-4.71.96-9.92,1.02-14.56-.2-9.4-2.46-15.63-9.36-17.34-11.28,0,0,0-.01-.02-.02h.01Z"/>
      </g>
      <path class="cls-5" d="M339.49,87.56c1.44,0,2.39-.79,2.39-2.23s-.95-2.14-2.43-2.14h-2.3v4.36h2.33ZM335.11,81.32h4.47c2.67,0,4.39,1.42,4.39,3.97,0,1.93-1.07,3.14-2.58,3.67l2.92,4.83h-2.39l-2.64-4.4s-.66,0-.68,0h-1.44v4.4h-2.05v-12.47"/>
      <g class="cls-3">
        <path class="cls-5" d="M339.31,77.12c-1.41,0-2.77.28-4.06.82-1.24.53-2.35,1.28-3.31,2.23s-1.71,2.07-2.23,3.32c-.54,1.28-.82,2.65-.82,4.06s.28,2.77.82,4.06c.53,1.24,1.28,2.35,2.23,3.31s2.07,1.71,3.31,2.23c1.29.54,2.65.82,4.06.82s2.78-.28,4.06-.82c1.24-.53,2.36-1.28,3.32-2.23s1.71-2.07,2.23-3.31c.54-1.29.82-2.65.82-4.06s-.28-2.78-.82-4.06c-.53-1.24-1.28-2.36-2.23-3.32s-2.07-1.71-3.32-2.23c-1.28-.54-2.65-.82-4.06-.82ZM339.31,100.14c-1.7,0-3.34-.33-4.9-.99-1.5-.64-2.84-1.54-4-2.7s-2.06-2.5-2.7-4c-.66-1.55-.99-3.2-.99-4.9s.33-3.35.99-4.9c.64-1.5,1.54-2.84,2.7-4s2.5-2.06,4-2.7c1.55-.66,3.2-.99,4.9-.99s3.35.33,4.9.99c1.5.64,2.84,1.54,4,2.7s2.06,2.5,2.7,4c.66,1.55.99,3.2.99,4.9s-.33,3.34-.99,4.9c-.64,1.5-1.54,2.84-2.7,4s-2.5,2.06-4,2.7c-1.55.66-3.2.99-4.9.99"/>
      </g>
      <path class="cls-5" d="M160.84,42.71v11.15h-23.25v12.04h17.4v10.81h-17.4v23.1h-13.92v-57.1h37.17Z"/>
      <path class="cls-5" d="M182.08,89.08h18.21v10.73h-32.13v-57.1h13.92v46.38Z"/>
      <path class="cls-5" d="M233.96,100.38c-5.36,0-10.28-1.24-14.75-3.73-4.47-2.5-8.03-5.98-10.67-10.46-2.63-4.47-3.94-9.5-3.94-15.08s1.31-10.59,3.94-15.04c2.64-4.44,6.19-7.92,10.67-10.42,4.47-2.5,9.39-3.75,14.75-3.75s10.3,1.25,14.77,3.75c4.47,2.5,7.99,5.97,10.56,10.42,2.58,4.45,3.88,9.46,3.88,15.04s-1.31,10.61-3.92,15.08c-2.6,4.47-6.12,7.96-10.56,10.46-4.45,2.49-9.35,3.73-14.73,3.73ZM233.96,87.69c4.55,0,8.2-1.51,10.94-4.54,2.73-3.04,4.1-7.05,4.1-12.04s-1.37-9.07-4.1-12.08c-2.74-3.01-6.39-4.52-10.94-4.52s-8.29,1.49-11.02,4.48c-2.74,2.99-4.1,7.03-4.1,12.13s1.36,9.07,4.1,12.08c2.73,3,6.41,4.5,11.02,4.5Z"/>
      <path class="cls-5" d="M303.98,99.81l-19.19-25.21v25.21h-13.92v-57.1h13.92v25.06l19.02-25.06h16.35l-22.13,27.98,22.94,29.13h-17Z"/>
    </g>
  </g>
</svg>