<?xml version="1.0" encoding="UTF-8"?>
<svg id="Layer_2" data-name="Layer 2" xmlns="http://www.w3.org/2000/svg" xmlns:xlink="http://www.w3.org/1999/xlink" viewBox="0 0 205 225.01">
  <defs>
    <style>
      .cls-1 {
        fill: none;
      }

      .cls-2 {
        clip-path: url(#clippath-1);
      }

      .cls-3 {
        clip-path: url(#clippath-2);
      }

      .cls-4 {
        fill: #fff;
      }

      .cls-5 {
        clip-path: url(#clippath);
      }
    </style>
    <clipPath id="clippath">
      <rect class="cls-1" x="13.12" y=".01" width="191.88" height="157.8"/>
    </clipPath>
    <clipPath id="clippath-1">
      <rect class="cls-1" y="76.48" width="189.12" height="110.67"/>
    </clipPath>
    <clipPath id="clippath-2">
      <rect class="cls-1" x="27.79" y="164.48" width="133.33" height="60.53"/>
    </clipPath>
  </defs>
  <g id="Layer_1-2" data-name="Layer 1">
    <g>
      <g class="cls-5">
        <path class="cls-4" d="M14.21.62c.14-.59.84-.82,1.28-.41,14.32,13.3,31.11,24.69,48.16,34.16,9.54,5.31,19.4,10.03,29.53,14.1,25.14,10.14,52.52,15.99,76.06,29.82,10.52,6.17,20.1,14.46,26.01,25.14,8.59,15.53,9.7,35.55,9.24,52.95-.06,2.67-4.91-2.08-5.54-2.83-3.1-3.75-5.19-8.48-8.26-12.39-6.42-8.13-14.43-14.99-23.49-20-13.86-7.67-29.63-10.93-44.91-15.06-34.98-9.47-71.9-24.8-93.19-55.65-8.81-12.78-14.47-27.72-15.27-43.28-.11-2.18-.1-4.41.41-6.54l-.02-.02Z"/>
      </g>
      <g class="cls-2">
        <path class="cls-4" d="M4.89,79.72c3.08,1.61,6.21,3.11,9.38,4.52,6.83,3.07,13.84,5.75,20.91,8.22,14.85,5.19,29.92,9.65,45.15,13.58,2.54.66,5.06,1.29,7.6,1.93,2.92.72,5.83,1.44,8.77,2.13,1.42.34,2.85.69,4.28,1.02,1.31.31,2.95,1,4.28,1,24.88,5.75,54.45,8.39,73.29,27.7,5.11,5.24,8.9,12.04,9.31,19.35.43,7.67-2.96,15.01-7.82,20.77-2.55,3.03-9.11,11.6-10.4,3.88-2.02-12.06-12.59-20.39-23.63-24.28-9.62-3.38-19.97-3.88-30.17-3.82-10.19.07-20.43.64-30.53-.72-17.57-2.36-34.08-10.57-47.64-21.97-15.16-12.74-29.51-30.67-35.88-49.6-.41-1.23-.79-2.47-1.11-3.73-.11-.44-.46-1.7,0-2.05.57-.43,2.9,1.38,3.49,1.69.24.13.49.26.72.38h.02Z"/>
      </g>
      <g class="cls-3">
        <path class="cls-4" d="M28.49,201.52c-1.36-1.56-.67-4.39,1.38-4.64,52.17-6.18,60.01-21.83,78.34-27.72,6.13-1.96,12.47-3.32,18.93-3.58,11.98-.49,25.99,3.21,33.31,13.3.21.29.57.67.57,1.06,0,.51-.57.79-.97,1-6.31,3.31-13.53,4.09-20.05,7.04-6.53,2.95-12.22,6.85-17.03,11.93-3.79,3.99-6.86,8.65-10.85,12.45-6.13,5.89-14.16,9.54-22.48,11.26-9.03,1.85-19.01,1.95-27.91-.38-18.01-4.73-29.95-18.01-33.23-21.69,0,0-.02-.02-.03-.04h.02Z"/>
      </g>
    </g>
  </g>
</svg>