<?xml version="1.0" encoding="UTF-8"?>
<svg id="Layer_2" data-name="Layer 2" xmlns="http://www.w3.org/2000/svg" xmlns:xlink="http://www.w3.org/1999/xlink" viewBox="0 0 227.57 216.75">
  <defs>
    <style>
      .cls-1 {
        fill: none;
      }

      .cls-2 {
        clip-path: url(#clippath-1);
      }

      .cls-3 {
        clip-path: url(#clippath-3);
      }

      .cls-4 {
        clip-path: url(#clippath-2);
      }

      .cls-5 {
        fill: #fff;
      }

      .cls-6 {
        clip-path: url(#clippath);
      }
    </style>
    <clipPath id="clippath">
      <rect class="cls-1" x="42.24" y="0" width="116.54" height="95.98"/>
    </clipPath>
    <clipPath id="clippath-1">
      <rect class="cls-1" x="34.78" y="46.65" width="114.12" height="66.67"/>
    </clipPath>
    <clipPath id="clippath-2">
      <rect class="cls-1" x="51.57" y="99.99" width="81.33" height="36.02"/>
    </clipPath>
    <clipPath id="clippath-3">
      <rect class="cls-1" x="202.85" y="191.75" width="24.72" height="25"/>
    </clipPath>
  </defs>
  <g id="Layer_1-2" data-name="Layer 1">
    <g>
      <g class="cls-6">
        <path class="cls-5" d="M43.38.37c.08-.35.51-.49.78-.25,8.66,8.04,18.82,14.92,29.13,20.65,5.77,3.21,11.74,6.06,17.86,8.53,15.2,6.13,31.77,9.67,46.01,18.02,6.36,3.73,12.16,8.74,15.73,15.2,5.2,9.39,5.87,21.49,5.59,32.01-.04,1.61-2.97-1.26-3.35-1.71-1.87-2.27-3.14-5.13-4.99-7.48-3.89-4.91-8.73-9.06-14.21-12.09-8.39-4.63-17.92-6.6-27.17-9.1-21.16-5.72-43.49-14.99-56.36-33.64-5.33-7.72-8.75-16.76-9.24-26.16-.07-1.31-.06-2.66.25-3.95h-.01Z"/>
      </g>
      <g class="cls-2">
        <path class="cls-5" d="M37.74,48.19c1.86.97,3.76,1.89,5.67,2.73,4.13,1.85,8.38,3.47,12.65,4.97,8.98,3.14,18.1,5.83,27.31,8.21,1.54.4,3.06.78,4.6,1.17,1.76.44,3.53.87,5.3,1.29.86.21,1.72.42,2.59.61.79.19,1.78.6,2.58.6,15.05,3.47,32.94,5.07,44.33,16.74,3.09,3.17,5.39,7.28,5.63,11.69.26,4.64-1.79,9.07-4.73,12.56-1.54,1.83-5.51,7.01-6.29,2.34-1.22-7.29-7.61-12.33-14.29-14.67-5.82-2.04-12.08-2.35-18.24-2.31-6.17.04-12.36.39-18.47-.44-10.63-1.43-20.61-6.39-28.81-13.28-9.17-7.7-17.85-18.54-21.7-29.98-.25-.74-.48-1.49-.68-2.26-.07-.27-.28-1.03,0-1.24.35-.26,1.76.83,2.11,1.02.15.08.3.16.43.22h.01Z"/>
      </g>
      <g class="cls-4">
        <path class="cls-5" d="M52.01,121.81c-.82-.94-.41-2.65.83-2.8,31.56-3.73,36.3-13.2,47.39-16.75,3.7-1.19,7.54-2.01,11.45-2.17,7.24-.3,15.72,1.94,20.15,8.04.13.18.35.41.35.65,0,.31-.35.47-.58.6-3.82,2-8.19,2.47-12.14,4.26-3.94,1.78-7.39,4.14-10.3,7.21-2.29,2.42-4.15,5.23-6.56,7.53-3.7,3.55-8.56,5.76-13.59,6.8-5.46,1.12-11.5,1.18-16.88-.23-10.9-2.86-18.12-10.88-20.1-13.11l-.02-.02h.01Z"/>
      </g>
      <path class="cls-5" d="M37.17,158.43v11.15H13.92v12.04h17.4v10.81H13.92v23.1H0v-57.1h37.17Z"/>
      <path class="cls-5" d="M58.4,204.8h18.21v10.73h-32.13v-57.1h13.92v46.38Z"/>
      <path class="cls-5" d="M110.28,216.09c-5.36,0-10.28-1.24-14.75-3.73-4.47-2.5-8.03-5.98-10.67-10.46-2.63-4.47-3.94-9.5-3.94-15.08s1.31-10.59,3.94-15.04c2.64-4.44,6.19-7.92,10.67-10.42,4.47-2.5,9.39-3.75,14.75-3.75s10.3,1.25,14.77,3.75c4.47,2.5,7.99,5.97,10.56,10.42,2.58,4.45,3.88,9.46,3.88,15.04s-1.31,10.61-3.92,15.08c-2.6,4.47-6.12,7.96-10.56,10.46-4.45,2.49-9.35,3.73-14.73,3.73ZM110.28,203.41c4.55,0,8.2-1.51,10.94-4.54,2.73-3.04,4.1-7.05,4.1-12.04s-1.37-9.07-4.1-12.08c-2.74-3.01-6.39-4.52-10.94-4.52s-8.29,1.49-11.02,4.48c-2.74,2.99-4.1,7.03-4.1,12.13s1.36,9.07,4.1,12.08c2.73,3,6.41,4.5,11.02,4.5Z"/>
      <path class="cls-5" d="M180.31,215.53l-19.19-25.21v25.21h-13.92v-57.1h13.92v25.06l19.02-25.06h16.35l-22.13,27.98,22.94,29.13h-17Z"/>
      <path class="cls-5" d="M215.38,204.11c1.42,0,2.34-.77,2.34-2.19s-.93-2.1-2.38-2.1h-2.26v4.29h2.29ZM211.08,197.99h4.39c2.62,0,4.3,1.4,4.3,3.9,0,1.89-1.05,3.07-2.53,3.6l2.86,4.74h-2.34l-2.58-4.32s-.65,0-.67,0h-1.42v4.32h-2.01v-12.24"/>
      <g class="cls-3">
        <path class="cls-5" d="M215.2,193.87c-1.39,0-2.72.27-3.98.81-1.22.51-2.31,1.25-3.25,2.19-.94.94-1.68,2.03-2.19,3.25-.54,1.26-.81,2.6-.81,3.98s.27,2.72.81,3.98c.52,1.22,1.25,2.31,2.19,3.25.94.94,2.03,1.68,3.25,2.2,1.26.53,2.6.8,3.98.8s2.72-.27,3.98-.8c1.22-.52,2.31-1.26,3.26-2.2s1.68-2.03,2.19-3.25c.53-1.26.8-2.6.8-3.98s-.27-2.72-.8-3.98c-.52-1.22-1.26-2.31-2.19-3.25s-2.04-1.68-3.26-2.19c-1.26-.54-2.6-.81-3.98-.81ZM215.2,216.46c-1.67,0-3.29-.33-4.81-.97-1.47-.62-2.79-1.51-3.93-2.65-1.14-1.13-2.03-2.45-2.65-3.92-.65-1.53-.97-3.14-.97-4.81s.33-3.29.97-4.81c.62-1.47,1.51-2.79,2.65-3.92,1.14-1.14,2.45-2.03,3.93-2.65,1.52-.65,3.14-.97,4.81-.97s3.28.33,4.81.97c1.47.62,2.79,1.51,3.92,2.65,1.14,1.13,2.03,2.45,2.65,3.92.64,1.53.97,3.14.97,4.81s-.33,3.28-.97,4.81c-.63,1.47-1.52,2.79-2.65,3.92-1.13,1.14-2.45,2.03-3.92,2.65-1.53.65-3.14.97-4.81.97"/>
      </g>
    </g>
  </g>
</svg>