<?xml version="1.0" encoding="UTF-8" standalone="no"?>
<!DOCTYPE svg PUBLIC "-//W3C//DTD SVG 1.1//EN" "http://www.w3.org/Graphics/SVG/1.1/DTD/svg11.dtd">
<svg width="100%" height="100%" viewBox="0 0 48 48" version="1.1" xmlns="http://www.w3.org/2000/svg" xmlns:xlink="http://www.w3.org/1999/xlink" xml:space="preserve" xmlns:serif="http://www.serif.com/" style="fill-rule:evenodd;clip-rule:evenodd;stroke-linejoin:round;stroke-miterlimit:2;">
    <path d="M28.987,43.695C28.971,43.554 28.931,43.414 28.852,43.285C28.561,42.815 27.945,42.668 27.476,42.958C26.671,43.454 25.842,43.767 25,43.908L25,33.999L26.61,33.999C27.163,33.999 27.61,33.551 27.61,32.999C27.61,32.447 27.163,31.999 26.61,31.999L25,31.999L25,24.999L27.35,24.999C27.903,24.999 28.35,24.551 28.35,23.999C28.35,23.447 27.903,22.999 27.35,22.999L25,22.999L25,15.999L34.075,15.999C34.666,18.451 35,21.154 35,23.999C35,24.551 35.447,24.999 36,24.999L43.949,24.999C43.897,26.028 43.792,27.051 43.582,28.042C43.468,28.582 43.813,29.113 44.353,29.228C44.893,29.344 45.424,28.997 45.539,28.457C45.846,27.009 46.001,25.509 46.001,24C46.001,11.869 36.132,2 24.001,2C11.87,2 2,11.869 2,24C2,36.131 11.869,46 24,46C25.589,46 27.152,45.831 28.648,45.496C29.186,45.375 29.526,44.841 29.405,44.302C29.347,44.042 29.191,43.833 28.987,43.695ZM23,43.908C19.361,43.308 16.236,39.472 14.488,34L23,34L23,43.908ZM23,32L13.925,32C13.404,29.839 13.096,27.477 13.028,25L23,25L23,32ZM4.051,25L11.029,25C11.092,27.471 11.381,29.823 11.87,32L5.682,32C4.734,29.839 4.174,27.477 4.051,25ZM5.682,16L11.87,16C11.381,18.177 11.092,20.529 11.029,23L4.051,23C4.174,20.523 4.734,18.161 5.682,16ZM23,23L13.028,23C13.096,20.523 13.404,18.161 13.925,16L23,16L23,23ZM23,4.092L23,14L14.488,14C16.235,8.528 19.361,4.692 23,4.092ZM25,14L25,4.092C28.639,4.692 31.764,8.528 33.512,14L25,14ZM36.131,16L42.319,16C43.267,18.161 43.827,20.523 43.95,23L36.988,23C36.926,20.526 36.621,18.18 36.131,16ZM41.294,14L35.612,14C34.539,10.367 32.896,7.343 30.863,5.239C35.278,6.86 38.962,9.984 41.294,14ZM17.148,5.235C15.11,7.34 13.461,10.362 12.387,14L6.706,14C9.04,9.98 12.729,6.854 17.148,5.235ZM6.706,34L12.387,34C13.462,37.638 15.11,40.661 17.148,42.765C12.728,41.146 9.04,38.02 6.706,34Z" style="fill:rgb(240,240,240);fill-rule:nonzero;"/>
    <path d="M44.865,31.724L31.938,25.518C31.29,25.207 30.517,25.269 29.926,25.682C29.334,26.096 29.011,26.799 29.081,27.517L30.491,41.787C30.569,42.583 31.09,43.235 31.849,43.488C32.61,43.741 33.415,43.53 33.955,42.941L35.751,40.979L38.096,44.326C38.555,44.983 39.242,45.421 40.033,45.56C40.209,45.591 40.385,45.606 40.559,45.606C41.169,45.606 41.764,45.42 42.274,45.063L43.913,43.916C45.267,42.967 45.599,41.093 44.65,39.738L42.305,36.39L44.762,35.374C45.502,35.068 45.976,34.381 45.997,33.581C46.019,32.781 45.585,32.069 44.863,31.723L44.865,31.724ZM40.39,35.019C40.11,35.135 39.897,35.372 39.812,35.663C39.727,35.955 39.779,36.268 39.953,36.517L43.013,40.886C43.329,41.338 43.219,41.963 42.768,42.279L41.129,43.426C40.91,43.579 40.644,43.64 40.381,43.592C40.118,43.546 39.89,43.4 39.736,43.181L36.676,38.812C36.502,38.563 36.225,38.408 35.922,38.388C35.9,38.387 35.878,38.386 35.857,38.386C35.578,38.386 35.309,38.503 35.12,38.711L32.482,41.592L31.072,27.321L44,33.527L40.391,35.02L40.39,35.019Z" style="fill:rgb(240,240,240);fill-rule:nonzero;"/>
</svg>
